<svg width="30" height="38" viewBox="0 0 30 38" fill="none" xmlns="http://www.w3.org/2000/svg">
<path d="M15 18.8847C20.5435 18.8847 25.0374 13.9481 25.0374 7.85863H4.96265C4.96265 13.9481 9.45649 18.8847 15 18.8847Z" stroke="#F39148" stroke-width="2" stroke-miterlimit="10" stroke-linecap="round"/>
<path d="M26.7901 1.81551H3.20992C2.23225 1.81551 1.4397 2.60806 1.4397 3.58573V6.08842C1.4397 7.06608 2.23225 7.85864 3.20992 7.85864H26.7901C27.7677 7.85864 28.5603 7.06608 28.5603 6.08842V3.58573C28.5603 2.60806 27.7677 1.81551 26.7901 1.81551Z" stroke="#F39148" stroke-width="2" stroke-miterlimit="10" stroke-linecap="round"/>
<path d="M15 19.6268C9.45649 19.6268 4.96265 24.5634 4.96265 30.6529H25.0374C25.0374 24.5634 20.5435 19.6268 15 19.6268Z" stroke="#F39148" stroke-width="2" stroke-miterlimit="10" stroke-linecap="round"/>
<path d="M3.20992 36.696H26.7901C27.7677 36.696 28.5603 35.9035 28.5603 34.9258V32.4231C28.5603 31.4454 27.7677 30.6529 26.7901 30.6529L3.20992 30.6529C2.23226 30.6529 1.4397 31.4454 1.4397 32.4231V34.9258C1.4397 35.9035 2.23226 36.696 3.20992 36.696Z" stroke="#F39148" stroke-width="2" stroke-miterlimit="10" stroke-linecap="round"/>
<path d="M15 14.7936V23.7179" stroke="#F39148" stroke-width="2" stroke-miterlimit="10" stroke-linecap="round"/>
</svg>
