<svg width="52" height="43" viewBox="0 0 52 43" fill="none" xmlns="http://www.w3.org/2000/svg">
<g clip-path="url(#clip0_522_25)">
<path d="M27.549 5.83199L15.4473 1.24465C13.5094 0.510073 11.343 1.48552 10.6084 3.42338L1.24464 28.1256C0.510067 30.0634 1.48552 32.2298 3.42337 32.9644L15.5251 37.5518C17.4629 38.2863 19.6293 37.3109 20.3639 35.373L29.7277 10.6709C30.4623 8.733 29.4868 6.56657 27.549 5.83199Z" stroke="#F3D86C" stroke-width="2" stroke-miterlimit="10" stroke-linecap="round"/>
<path d="M30.8519 8.03296H17.9099C15.8375 8.03296 14.1575 9.71298 14.1575 11.7854V38.2028C14.1575 40.2752 15.8375 41.9552 17.9099 41.9552H30.8519C32.9243 41.9552 34.6043 40.2752 34.6043 38.2028V11.7854C34.6043 9.71298 32.9243 8.03296 30.8519 8.03296Z" fill="#002C42" stroke="#F3D86C" stroke-width="2" stroke-miterlimit="10" stroke-linecap="round"/>
<path d="M43.825 14.9929L48.2091 19.377L43.825 14.9929ZM46.2959 12.7361C46.0017 12.8869 45.7326 13.0828 45.4991 13.3168L26.4652 32.3508C26.3277 32.4882 26.2437 32.6702 26.2282 32.8639L25.8815 37.1964C25.8683 37.3608 26.0085 37.4962 26.1722 37.4774L30.6175 36.9684C30.8012 36.9474 30.9722 36.8648 31.1029 36.7341L50.0091 17.828C50.9428 16.8923 51.2007 15.4767 50.6568 14.2719C50.3814 13.5303 49.7963 12.9457 49.0546 12.6697C48.1722 12.2742 47.1577 12.2992 46.2959 12.7373" fill="#002C42"/>
<path d="M43.825 14.9929L48.2091 19.377M46.2959 12.7361C46.0017 12.8869 45.7326 13.0828 45.4991 13.3168L26.4652 32.3508C26.3277 32.4882 26.2437 32.6702 26.2282 32.8639L25.8815 37.1964C25.8683 37.3607 26.0085 37.4962 26.1722 37.4774L30.6175 36.9684C30.8012 36.9474 30.9722 36.8648 31.1029 36.7341L50.0091 17.828C50.9428 16.8923 51.2007 15.4767 50.6568 14.2719C50.3814 13.5303 49.7963 12.9457 49.0546 12.6697C48.1722 12.2742 47.1577 12.2992 46.2959 12.7373" stroke="#F3D86C" stroke-width="2" stroke-miterlimit="10" stroke-linecap="round"/>
<path d="M18.0303 15.6748H30.7314" stroke="#F3D86C" stroke-width="2" stroke-miterlimit="10" stroke-linecap="round"/>
</g>
<defs>
<clipPath id="clip0_522_25">
<rect width="51.9387" height="42.9552" fill="white"/>
</clipPath>
</defs>
</svg>
