<svg width="38" height="40" viewBox="0 0 38 40" fill="none" xmlns="http://www.w3.org/2000/svg">
<g clip-path="url(#clip0_522_31)">
<path d="M19.6433 1H5.19049C2.87615 1 1 2.87615 1 5.19049V34.6919C1 37.0062 2.87615 38.8824 5.19049 38.8824H19.6433C21.9577 38.8824 23.8338 37.0062 23.8338 34.6919V5.19049C23.8338 2.87615 21.9577 1 19.6433 1Z" stroke="#002C42" stroke-width="2" stroke-miterlimit="10" stroke-linecap="round"/>
<path d="M1.06982 7.11399H23.7641" stroke="#002C42" stroke-width="2" stroke-miterlimit="10" stroke-linecap="round"/>
<path d="M1.06982 32.7684H23.7641" stroke="#002C42" stroke-width="2" stroke-miterlimit="10" stroke-linecap="round"/>
<path d="M10.3613 35.7845H14.4726" stroke="#002C42" stroke-width="2" stroke-miterlimit="10" stroke-linecap="round"/>
<path d="M34.6266 11.4662H18.9626C17.7706 11.4662 16.8042 12.4326 16.8042 13.6247C16.8042 14.8167 17.7706 15.7831 18.9626 15.7831H34.6266C35.8187 15.7831 36.785 14.8167 36.785 13.6247C36.785 12.4326 35.8187 11.4662 34.6266 11.4662Z" fill="#57E296" stroke="#002C42" stroke-width="2" stroke-miterlimit="10" stroke-linecap="round"/>
<path d="M26.2703 15.8139H11.9013C10.7093 15.8139 9.74292 16.7803 9.74292 17.9723C9.74292 19.1644 10.7093 20.1308 11.9013 20.1308H26.2703C27.4623 20.1308 28.4287 19.1644 28.4287 17.9723C28.4287 16.7803 27.4623 15.8139 26.2703 15.8139Z" fill="#57E296" stroke="#002C42" stroke-width="2" stroke-miterlimit="10" stroke-linecap="round"/>
</g>
<defs>
<clipPath id="clip0_522_31">
<rect width="37.7849" height="39.8824" fill="white"/>
</clipPath>
</defs>
</svg>
