<svg width="40" height="39" viewBox="0 0 40 39" fill="none" xmlns="http://www.w3.org/2000/svg">
<g clip-path="url(#clip0_522_42)">
<path d="M19.7062 31.4376L8.91595 37.1104C8.46779 37.346 7.94399 36.9654 8.02958 36.4664L10.0903 24.4513C10.1243 24.2531 10.0586 24.0509 9.91465 23.9106L1.18515 15.4014C0.822578 15.048 1.02265 14.4322 1.52371 14.3594L13.5876 12.6064C13.7865 12.5775 13.9586 12.4525 14.0475 12.2723L19.4427 1.34053C19.6667 0.88649 20.3142 0.88649 20.5383 1.34053L25.9334 12.2723C26.0224 12.4525 26.1944 12.5775 26.3934 12.6064L38.4572 14.3594C38.9583 14.4322 39.1584 15.048 38.7958 15.4014L30.0663 23.9106C29.9223 24.0509 29.8566 24.2531 29.8906 24.4513L31.9514 36.4664C32.037 36.9654 31.5132 37.346 31.065 37.1104L20.2747 31.4376C20.0968 31.3441 19.8842 31.3441 19.7062 31.4376H19.7062Z" fill="#F39148" stroke="#F3D86C" stroke-width="2" stroke-miterlimit="10" stroke-linecap="round"/>
<path d="M24.8729 33.8872L18.6839 37.1409C18.4269 37.276 18.1264 37.0577 18.1755 36.7715L19.3575 29.88C19.377 29.7663 19.3393 29.6504 19.2567 29.5699L14.2498 24.6893C14.0418 24.4866 14.1565 24.1334 14.4439 24.0916L21.3634 23.0862C21.4775 23.0696 21.5762 22.9979 21.6272 22.8945L24.7217 16.6244C24.8502 16.364 25.2216 16.364 25.3501 16.6244L28.4446 22.8945C28.4956 22.9979 28.5943 23.0696 28.7084 23.0862L35.6279 24.0916C35.9152 24.1334 36.03 24.4866 35.822 24.6893L30.8151 29.5699C30.7325 29.6504 30.6948 29.7663 30.7143 29.88L31.8963 36.7715C31.9454 37.0577 31.6449 37.276 31.3879 37.1409L25.1989 33.8872C25.0969 33.8335 24.9749 33.8335 24.8729 33.8872Z" fill="#F39148" stroke="#F3D86C" stroke-width="2" stroke-miterlimit="10" stroke-linecap="round"/>
</g>
<defs>
<clipPath id="clip0_522_42">
<rect width="39.9809" height="38.1819" fill="white"/>
</clipPath>
</defs>
</svg>
