<svg width="119" height="35" viewBox="0 0 119 35" fill="none" xmlns="http://www.w3.org/2000/svg">
<path d="M27.4309 1.71375V34.3451H23.3293V19.5206H4.44886V34.3451H0.347168V1.71375H4.44886V15.931H23.3292V1.71375H27.4309H27.4309Z" fill="#57E296"/>
<path d="M56.5163 10.4304V34.3451H53.0665L52.6472 26.2804C51.2952 32.4811 48.0322 34.7645 43.3233 34.7645C36.89 34.7645 33.2546 29.1241 33.2546 22.3643C33.2546 15.5117 37.0768 10.0111 43.3233 10.0111C48.0792 10.0111 51.2952 12.4355 52.4604 18.7748L52.8798 10.4305H56.5163V10.4304ZM52.5544 22.3643C52.5544 17.4228 49.5239 13.2741 44.862 13.2741C40.294 13.2741 37.2166 17.5167 37.2166 22.3643C37.2166 27.213 40.247 31.5015 44.862 31.5015C49.6167 31.5015 52.5544 27.2589 52.5544 22.3643Z" fill="#57E296"/>
<path d="M63.8799 0.314819H67.8888V34.3451H63.8799V0.314819Z" fill="#57E296"/>
<path d="M75.439 0.314819H79.4479V34.3451H75.439V0.314819Z" fill="#57E296"/>
<path d="M85.1799 22.3643C85.1799 15.325 89.7949 10.105 96.7873 10.105C103.78 10.105 108.395 15.4659 108.395 22.3643C108.395 29.4036 103.827 34.6717 96.7873 34.6717C89.6551 34.6717 85.1799 29.3108 85.1799 22.3643ZM104.479 22.3643C104.479 17.4698 101.542 13.2741 96.7873 13.2741C91.9397 13.2741 89.096 17.5637 89.096 22.3643C89.096 27.3528 92.0325 31.5014 96.7873 31.5014C101.682 31.5014 104.479 27.166 104.479 22.3643Z" fill="#57E296"/>
<path d="M113.893 32.5269C113.893 31.3147 114.639 30.429 116.038 30.429C117.436 30.429 118.182 31.3147 118.182 32.5269C118.182 33.739 117.436 34.6716 116.038 34.6716C114.639 34.6716 113.893 33.739 113.893 32.5269ZM114.592 23.7632L113.986 1.71375H118.136L117.436 25.8141H117.156C116.223 25.8141 114.732 25.5815 114.592 23.7632V23.7632Z" fill="#57E296"/>
</svg>
