<svg width="311" height="37" viewBox="0 0 311 37" fill="none" xmlns="http://www.w3.org/2000/svg">
<path d="M4.44195 3.04091C4.44195 4.05106 3.78221 4.82824 2.65557 4.82824C1.45066 4.82824 0.829102 4.05106 0.829102 3.04091C0.829102 2.03077 1.45066 1.29272 2.65557 1.29272C3.7822 1.29272 4.44195 2.03076 4.44195 3.04091ZM3.8204 10.344L4.36462 28.7576H0.868249L1.4898 8.67406H1.68362C2.4608 8.67406 3.70392 8.86787 3.8204 10.344Z" fill="#8C4AB3"/>
<path d="M33.2656 1.56482V28.7576H29.8475V16.4039H14.1139V28.7576H10.6958V1.56482H14.1139V13.4126H29.8475V1.56482H33.2656Z" fill="#8C4AB3"/>
<path d="M38.1187 18.7736C38.1187 12.9075 41.9645 8.55756 47.7914 8.55756C53.6184 8.55756 57.4642 13.0249 57.4642 18.7736C57.4642 24.6397 53.6575 29.0297 47.7914 29.0297C41.848 29.0297 38.1187 24.5624 38.1187 18.7736ZM54.2018 18.7736C54.2018 14.6948 51.7537 11.1984 47.7914 11.1984C43.7518 11.1984 41.3821 14.7731 41.3821 18.7736C41.3821 22.9307 43.8291 26.3879 47.7914 26.3879C51.8702 26.3879 54.2018 22.775 54.2018 18.7736Z" fill="#8C4AB3"/>
<path d="M62.2017 0.399048H65.5424V28.7576H62.2017V0.399048Z" fill="#8C4AB3"/>
<path d="M89.7038 8.82875V28.7577H86.829L86.4795 22.037C85.3529 27.2043 82.6337 29.1071 78.7096 29.1071C73.3486 29.1071 70.3191 24.4068 70.3191 18.7736C70.3191 13.0632 73.5042 8.47931 78.7096 8.47931C82.6729 8.47931 85.3529 10.4996 86.3239 15.7823L86.6734 8.82876H89.7038V8.82875ZM86.4022 18.7736C86.4022 14.6557 83.8768 11.1985 79.9919 11.1985C76.1852 11.1985 73.6207 14.734 73.6207 18.7736C73.6207 22.8142 76.1461 26.3879 79.9919 26.3879C83.9542 26.3879 86.4022 22.8524 86.4022 18.7736Z" fill="#8C4AB3"/>
<path d="M95.6846 27.2424C95.6846 26.2323 96.3061 25.4942 97.4719 25.4942C98.6367 25.4942 99.2583 26.2323 99.2583 27.2424C99.2583 28.2526 98.6367 29.0297 97.4719 29.0297C96.3061 29.0297 95.6846 28.2526 95.6846 27.2424ZM96.267 19.9394L95.7619 1.56482H99.2191L98.6367 21.6484H98.4038C97.6266 21.6484 96.3835 21.4546 96.267 19.9394V19.9394Z" fill="#8C4AB3"/>
<path d="M134.918 21.4546C134.918 25.922 131.422 28.7576 125.672 28.7576H113.902V1.56482H125.672C130.644 1.56482 133.791 4.16752 133.791 7.93504C133.791 11.5479 131.615 14.5783 124.973 14.5783C131.732 14.5783 134.918 17.2975 134.918 21.4546L134.918 21.4546ZM117.203 4.284V13.2961H124.895C128.236 13.2961 130.411 11.3932 130.411 8.67403C130.411 5.99304 128.314 4.284 124.895 4.284H117.203ZM131.577 20.833C131.577 17.9974 129.285 15.9771 125.362 15.9771H117.203V25.9993H125.283C129.324 25.9993 131.577 24.0955 131.577 20.833Z" fill="#8C4AB3"/>
<path d="M144.122 28.7577H140.82V11.4315H137.208V8.82875H144.122V28.7577H144.122ZM140.587 2.96265C140.587 1.83697 141.365 1.17627 142.452 1.17627C143.579 1.17627 144.356 1.83697 144.356 2.96265C144.356 4.12842 143.579 4.74997 142.452 4.74997C141.365 4.74997 140.587 4.12842 140.587 2.96265Z" fill="#8C4AB3"/>
<path d="M167.624 19.4734H151.968C152.124 23.979 154.687 26.66 158.533 26.66C161.292 26.66 163.235 25.5725 164.322 23.0863H167.352C166.108 26.893 162.807 29.0297 158.533 29.0297C152.396 29.0297 148.9 24.6789 148.9 18.6963C148.9 13.0631 152.823 8.55756 158.379 8.55756C164.206 8.55756 167.624 12.7528 167.624 18.385V19.4734H167.624ZM151.968 17.5305H164.594C164.439 13.763 162.146 10.7717 158.339 10.7717C154.61 10.7717 152.124 14.1506 151.968 17.5305Z" fill="#8C4AB3"/>
<path d="M189.104 16.4039V28.7576H185.802V16.7924C185.802 13.2579 184.054 11.2767 180.868 11.2767C177.528 11.2767 175.624 13.5682 175.624 17.1419V28.7576H172.283V8.82871H175.197L175.507 14.8504C176.324 10.2274 178.81 8.55756 181.918 8.55756C186.618 8.55756 189.104 11.4706 189.104 16.4039Z" fill="#8C4AB3"/>
<path d="M198.425 28.3299C198.425 31.0883 196.871 33.458 194.307 33.458H193.569V32.254H193.957C195.899 32.254 198.347 30.6615 197.803 27.8249C197.337 28.9515 196.56 29.0298 196.094 29.0298C195.2 29.0298 194.423 28.2526 194.423 27.2425C194.423 26.2323 195.2 25.4943 196.21 25.4943C197.493 25.4943 198.425 26.4653 198.425 28.3299Z" fill="#8C4AB3"/>
<path d="M221.148 9.25647V10.6161C221.148 16.5986 213.729 16.8708 213.729 21.9979C213.729 24.7953 215.864 26.3106 218.701 26.3106C221.886 26.3106 223.634 24.3676 223.867 21.1052H226.859C226.703 25.7663 223.712 29.0297 218.701 29.0297C214.116 29.0297 210.659 26.5044 210.659 22.2318C210.659 15.7823 218.312 15.705 218.312 10.3048V8.28546H220.138C220.759 8.28546 221.148 8.59576 221.148 9.25645V9.25647ZM221.42 3.04091C221.42 4.05106 220.915 4.7891 219.633 4.7891C218.312 4.7891 217.846 4.05107 217.846 3.04091C217.846 2.03076 218.312 1.29272 219.633 1.29272C220.915 1.29272 221.42 2.03076 221.42 3.04091Z" fill="#8C4AB3"/>
<path d="M247.097 8.82874L239.405 30.9718C238.124 34.5846 236.337 36.372 232.763 36.372H229.616V33.6528H232.335C234.666 33.6528 235.482 32.7973 236.997 28.8741H234.977L227.829 8.82874H231.17L237.424 27.5537L243.718 8.82874H247.097H247.097Z" fill="#8C4AB3"/>
<path d="M269.78 25.9993V28.7577H266.284C262.4 28.7577 260.496 26.5817 260.496 22.6586V11.4315H256.883V8.82875H260.496V3.39038H263.798V6.2652C263.798 7.70213 262.982 8.82875 261.351 8.82875H269.742V11.4315H263.798V22.27C263.798 24.6398 265.003 25.9993 267.294 25.9993H269.78Z" fill="#8C4AB3"/>
<path d="M290.407 8.82874V28.7577H287.532L287.222 22.7359C286.328 27.4372 283.959 29.0298 280.773 29.0298C276.267 29.0298 273.781 26.1158 273.781 21.1434V8.82874H277.122V20.7939C277.122 24.3294 278.831 26.3106 282.017 26.3106C285.241 26.3106 287.106 24.0182 287.106 20.4836V8.82874H290.407ZM281.395 6.22603H280.967L284.036 0.359924H287.571L285.784 2.92444C284.385 4.82826 283.26 6.22603 281.395 6.22603Z" fill="#8C4AB3"/>
<path d="M300.506 21.066V19.7064C300.506 13.6847 307.925 13.4517 307.925 8.32366C307.925 5.52714 305.788 4.01191 302.953 4.01191C299.768 4.01191 298.058 5.91573 297.825 9.17817H294.795C294.951 4.55613 297.941 1.29272 302.953 1.29272C307.537 1.29272 310.994 3.81809 310.994 8.09068C310.994 14.501 303.38 14.5783 303.38 20.0167V22.037H301.554C300.894 22.037 300.506 21.7267 300.506 21.066ZM300.273 27.2816C300.273 26.2714 300.739 25.5334 302.021 25.5334C303.341 25.5334 303.807 26.2714 303.807 27.2816C303.807 28.2526 303.341 29.0298 302.021 29.0298C300.739 29.0298 300.273 28.2526 300.273 27.2816Z" fill="#8C4AB3"/>
</svg>
