<svg width="115" height="115" viewBox="0 0 115 115" fill="none" xmlns="http://www.w3.org/2000/svg">
<g clip-path="url(#clip0_175_657)">
<path d="M91.6406 115H23.3594C10.4578 115 0 104.542 0 91.6406V23.3594C0 10.4578 10.4578 0 23.3594 0H91.6406C104.542 0 115 10.4578 115 23.3594V91.6406C115 104.542 104.542 115 91.6406 115Z" fill="url(#paint0_linear_175_657)"/>
<path d="M92.3908 79.9183H17.3915C16.0798 79.9183 15.0151 80.983 15.0151 82.2947V87.5124C15.0151 91.7058 18.4157 95.1064 22.6092 95.1064H92.3908C96.5843 95.1064 99.9849 91.7058 99.9849 87.5124C99.9849 83.3189 96.5843 79.9183 92.3908 79.9183Z" fill="white"/>
<path d="M17.3915 64.7077H75.0734C79.2669 64.7077 82.6675 61.3072 82.6675 57.1137C82.6675 52.9202 79.2669 49.5197 75.0734 49.5197H17.3915C16.0798 49.5197 15.0151 50.5843 15.0151 51.896V62.3314C15.0151 63.6453 16.0798 64.7077 17.3915 64.7077Z" fill="white"/>
<path d="M17.3915 35.0818H46.5031C50.6966 35.0818 54.0972 31.6812 54.0972 27.4877C54.0972 23.2943 50.6966 19.8937 46.5031 19.8937H34.7021C34.6527 19.8937 34.6056 19.9072 34.5562 19.9094C34.5067 19.9094 34.4596 19.8937 34.4102 19.8937H22.6092C18.4157 19.8937 15.0151 23.2943 15.0151 27.4877V32.7054C15.0151 34.0171 16.0798 35.0818 17.3915 35.0818Z" fill="white"/>
<path d="M59.892 64.3079L77.0881 37.3076C77.9641 35.9307 79.4847 35.0974 81.1176 35.0974H90.3086C91.3149 35.0974 92.1302 35.9127 92.1302 36.919V78.0832C92.1302 79.0894 91.3149 79.9047 90.3086 79.9047H83.8376C82.8314 79.9047 82.0161 79.0894 82.0161 78.0832V53.7737C82.0161 51.9521 79.6352 51.2581 78.6581 52.7966L67.8702 69.7546C66.9919 71.1337 65.4713 71.9693 63.8362 71.9693H51.1615C49.5263 71.9693 48.0057 71.1337 47.1275 69.7546L36.3395 52.7966C35.3602 51.258 32.9816 51.9521 32.9816 53.7737V78.0832C32.9816 79.0894 32.1663 79.9047 31.16 79.9047H24.689C23.6828 79.9047 22.8674 79.0894 22.8674 78.0832V36.919C22.8674 35.9127 23.6828 35.0974 24.689 35.0974H33.88C35.5129 35.0974 37.0313 35.9307 37.9095 37.3076L55.1056 64.3079C56.2242 66.0576 58.778 66.0576 59.892 64.3079V64.3079Z" fill="#192525"/>
</g>
<defs>
<linearGradient id="paint0_linear_175_657" x1="0" y1="57.5" x2="115" y2="57.5" gradientUnits="userSpaceOnUse">
<stop stop-color="#F3EA47"/>
<stop offset="1" stop-color="#F34D2C"/>
</linearGradient>
<clipPath id="clip0_175_657">
<rect width="115" height="115" fill="white"/>
</clipPath>
</defs>
</svg>
