<svg width="133" height="15" viewBox="0 0 133 15" fill="none" xmlns="http://www.w3.org/2000/svg">
<g clip-path="url(#clip0_188_2435)">
<path d="M121.375 7.47191C120.823 7.16058 120.596 6.44517 120.873 5.86795C121.102 5.39214 121.242 4.83953 121.242 4.29728C121.262 2.128 119.356 0.40918 116.627 0.40918H107.199C106.732 0.40918 106.354 0.795069 106.354 1.27109V13.8719C106.354 14.3479 106.732 14.7338 107.199 14.7338H118.533C121.643 14.7338 123.048 12.7898 123.048 10.5182C123.048 9.06648 122.409 8.05608 121.375 7.47191V7.47191ZM109.524 4.177C109.524 3.70098 109.902 3.31509 110.369 3.31509H116.768C117.771 3.31509 118.312 3.88814 118.312 4.68608C118.312 5.4637 117.771 6.09806 116.768 6.09806H110.369C109.902 6.09806 109.524 5.71215 109.524 5.23613V4.177V4.177ZM118.453 11.8279H110.369C109.902 11.8279 109.524 11.442 109.524 10.966V9.68164C109.524 9.20562 109.902 8.81973 110.369 8.81973H118.453C119.356 8.81973 120.078 9.3518 120.078 10.3137C120.078 11.2552 119.356 11.8279 118.453 11.8279Z" fill="#57E296"/>
<path d="M21.1393 0.40918H18.2581C17.7463 0.40918 17.27 0.675726 16.9951 1.11597L11.6048 9.74777C11.2555 10.307 10.4549 10.307 10.1057 9.74777L4.71527 1.11595C4.44035 0.675723 3.96402 0.40918 3.45226 0.40918H0.571015C0.25564 0.40918 0 0.669903 0 0.991548V14.1515C0 14.4731 0.25564 14.7338 0.571015 14.7338H2.59937C2.91472 14.7338 3.17038 14.4731 3.17038 14.1515V6.37974C3.17038 5.79706 3.91653 5.57551 4.22319 6.06716L7.60461 11.4885C7.87961 11.9294 8.35648 12.1964 8.86886 12.1964H12.8416C13.354 12.1964 13.8309 11.9294 14.1059 11.4885L17.4873 6.06716C17.794 5.57551 18.5401 5.79706 18.5401 6.37974V14.1515C18.5401 14.4731 18.7958 14.7338 19.1111 14.7338H21.1393C21.4547 14.7338 21.7103 14.4731 21.7103 14.1515V0.991548C21.7103 0.669903 21.4547 0.40918 21.1393 0.40918Z" fill="#57E296"/>
<path d="M72.36 0.40918H69.4787C68.967 0.40918 68.4906 0.675726 68.2157 1.11597L62.8254 9.74779C62.4762 10.307 61.6756 10.307 61.3264 9.74779L55.9359 1.11595C55.661 0.675723 55.1847 0.40918 54.6729 0.40918H51.7917C51.4763 0.40918 51.2206 0.669903 51.2206 0.991548V14.1515C51.2206 14.4731 51.4763 14.7338 51.7917 14.7338H53.82C54.1354 14.7338 54.391 14.4731 54.391 14.1515V6.37974C54.391 5.79706 55.1372 5.57551 55.4438 6.06716L58.8252 11.4885C59.1003 11.9294 59.5771 12.1964 60.0895 12.1964H64.0623C64.5747 12.1964 65.0515 11.9294 65.3265 11.4885L68.708 6.06716C69.0146 5.57551 69.7608 5.79706 69.7608 6.37974V14.1515C69.7608 14.4731 70.0164 14.7338 70.3318 14.7338H72.36C72.6753 14.7338 72.931 14.4731 72.931 14.1515V0.991548C72.931 0.669903 72.6753 0.40918 72.36 0.40918Z" fill="#57E296"/>
<path d="M89.6418 0C83.4017 0 79.4489 1.92339 79.4489 6.97792V8.02174C79.4489 13.0763 83.4017 15 89.6418 15C95.8823 15 99.8351 13.0763 99.8351 8.02174V6.97792C99.8351 1.92339 95.8823 0 89.6418 0V0ZM96.765 8.02174C96.765 11.4391 93.2336 12.1554 89.6418 12.1554C86.0504 12.1554 82.519 11.4391 82.519 8.02174V6.97791C82.519 3.56059 86.0504 2.84427 89.6418 2.84427C93.2336 2.84427 96.765 3.56059 96.765 6.97791V8.02174Z" fill="#57E296"/>
<path d="M131.949 0.40918H129.663C129.419 0.40918 129.221 0.611036 129.221 0.860031V14.283C129.221 14.532 129.419 14.7338 129.663 14.7338H131.949C132.193 14.7338 132.391 14.532 132.391 14.283V0.860031C132.391 0.611036 132.193 0.40918 131.949 0.40918Z" fill="#57E296"/>
<path d="M43.1478 11.8286H29.1922C28.948 11.8286 28.7501 12.0305 28.7501 12.2795V13.2697C28.7501 14.0656 29.3827 14.7108 30.1631 14.7108H43.1478C43.9282 14.7108 44.5608 14.0656 44.5608 13.2697C44.5608 12.4738 43.9282 11.8286 43.1478 11.8286L43.1478 11.8286Z" fill="#57E296"/>
<path d="M29.1922 8.94198H39.9252C40.7056 8.94198 41.3382 8.29678 41.3382 7.5009C41.3382 6.70501 40.7056 6.05981 39.9252 6.05981H29.1922C28.948 6.05981 28.7501 6.26167 28.7501 6.51067V8.49112C28.7501 8.74012 28.948 8.94197 29.1922 8.94197V8.94198Z" fill="#57E296"/>
<path d="M29.1922 3.31966H34.6093C35.3897 3.31966 36.0223 2.67447 36.0223 1.87858C36.0223 1.08269 35.3897 0.4375 34.6093 0.4375H32.4135C32.4041 0.4375 32.3955 0.440104 32.3862 0.440294C32.3769 0.440104 32.3683 0.4375 32.359 0.4375H30.1631C29.3827 0.4375 28.7501 1.08269 28.7501 1.87858V2.86881C28.7501 3.1178 28.948 3.31966 29.1922 3.31966L29.1922 3.31966Z" fill="#57E296"/>
</g>
<defs>
<clipPath id="clip0_188_2435">
<rect width="132.391" height="15" fill="white"/>
</clipPath>
</defs>
</svg>
