<svg width="177" height="20" viewBox="0 0 177 20" fill="none" xmlns="http://www.w3.org/2000/svg">
<g clip-path="url(#clip0_175_141)">
<path d="M161.833 9.96251C161.098 9.5474 160.795 8.59352 161.164 7.82389C161.469 7.18947 161.656 6.45267 161.656 5.72966C161.683 2.8373 159.141 0.545532 155.503 0.545532H142.932C142.31 0.545532 141.805 1.06005 141.805 1.69475V18.4958C141.805 19.1305 142.31 19.6451 142.932 19.6451H158.044C162.191 19.6451 164.064 17.053 164.064 14.0243C164.064 12.0886 163.212 10.7414 161.833 9.96251V9.96251ZM146.032 5.56929C146.032 4.9346 146.536 4.42008 147.159 4.42008H155.69C157.028 4.42008 157.75 5.18415 157.75 6.24807C157.75 7.2849 157.028 8.1307 155.69 8.1307H147.159C146.536 8.1307 146.032 7.61616 146.032 6.98146V5.56929V5.56929ZM157.937 15.7705H147.159C146.536 15.7705 146.032 15.256 146.032 14.6213V12.9088C146.032 12.2741 146.536 11.7596 147.159 11.7596H157.937C159.141 11.7596 160.104 12.469 160.104 13.7515C160.104 15.0069 159.141 15.7705 157.937 15.7705Z" fill="#002C42"/>
<path d="M28.1858 0.545532H24.3441C23.6618 0.545532 23.0267 0.900927 22.6601 1.48792L15.473 12.997C15.0074 13.7427 13.9399 13.7427 13.4743 12.997L6.28702 1.48789C5.92046 0.900923 5.28536 0.545532 4.60301 0.545532H0.761353C0.340853 0.545532 0 0.893163 0 1.32202V18.8686C0 19.2974 0.340853 19.6451 0.761353 19.6451H3.46583C3.8863 19.6451 4.22718 19.2974 4.22718 18.8686V8.50628C4.22718 7.72937 5.22204 7.43398 5.63091 8.0895L10.1395 15.3179C10.5061 15.9058 11.142 16.2618 11.8252 16.2618H17.1222C17.8054 16.2618 18.4412 15.9058 18.8079 15.3179L23.3164 8.0895C23.7253 7.43398 24.7202 7.72937 24.7202 8.50628V18.8686C24.7202 19.2974 25.061 19.6451 25.4815 19.6451H28.1858C28.6062 19.6451 28.9471 19.2974 28.9471 18.8686V1.32202C28.9471 0.893163 28.6062 0.545532 28.1858 0.545532Z" fill="#002C42"/>
<path d="M96.48 0.545532H92.6383C91.956 0.545532 91.3208 0.900927 90.9543 1.48792L83.7672 12.997C83.3015 13.7427 82.2341 13.7427 81.7685 12.997L74.5812 1.48789C74.2147 0.900923 73.5795 0.545532 72.8972 0.545532H69.0555C68.635 0.545532 68.2942 0.893163 68.2942 1.32202V18.8686C68.2942 19.2974 68.635 19.6451 69.0555 19.6451H71.76C72.1805 19.6451 72.5214 19.2974 72.5214 18.8686V8.50628C72.5214 7.72937 73.5162 7.43398 73.9251 8.0895L78.4337 15.3179C78.8003 15.9058 79.4362 16.2618 80.1193 16.2618H85.4164C86.0996 16.2618 86.7354 15.9058 87.1021 15.3179L91.6106 8.0895C92.0195 7.43398 93.0143 7.72937 93.0143 8.50628V18.8686C93.0143 19.2974 93.3552 19.6451 93.7757 19.6451H96.48C96.9004 19.6451 97.2413 19.2974 97.2413 18.8686V1.32202C97.2413 0.893163 96.9004 0.545532 96.48 0.545532Z" fill="#002C42"/>
<path d="M119.522 0C111.202 0 105.932 2.56452 105.932 9.30389V10.6957C105.932 17.435 111.202 20 119.522 20C127.843 20 133.113 17.435 133.113 10.6957V9.30389C133.113 2.56452 127.843 0 119.522 0V0ZM129.02 10.6957C129.02 15.2521 124.311 16.2072 119.522 16.2072C114.734 16.2072 110.025 15.2521 110.025 10.6957V9.30389C110.025 4.74745 114.734 3.79236 119.522 3.79236C124.311 3.79236 129.02 4.74745 129.02 9.30389V10.6957Z" fill="#002C42"/>
<path d="M175.932 0.545532H172.884C172.559 0.545532 172.295 0.814673 172.295 1.14667V19.0439C172.295 19.3759 172.559 19.6451 172.884 19.6451H175.932C176.258 19.6451 176.522 19.3759 176.522 19.0439V1.14667C176.522 0.814673 176.258 0.545532 175.932 0.545532Z" fill="#002C42"/>
<path d="M57.5304 15.7714H38.9229C38.5974 15.7714 38.3335 16.0405 38.3335 16.3725V17.6928C38.3335 18.754 39.177 19.6142 40.2175 19.6142H57.5304C58.5709 19.6142 59.4143 18.754 59.4143 17.6928C59.4143 16.6316 58.5709 15.7714 57.5304 15.7714L57.5304 15.7714Z" fill="#002C42"/>
<path d="M38.9229 11.9227H53.2336C54.2741 11.9227 55.1176 11.0625 55.1176 10.0013C55.1176 8.94009 54.2741 8.07983 53.2336 8.07983H38.9229C38.5974 8.07983 38.3335 8.34898 38.3335 8.68097V11.3216C38.3335 11.6536 38.5974 11.9227 38.9229 11.9227V11.9227Z" fill="#002C42"/>
<path d="M38.9229 4.42626H46.1457C47.1863 4.42626 48.0297 3.566 48.0297 2.50482C48.0297 1.44363 47.1863 0.583374 46.1457 0.583374H43.2179C43.2055 0.583374 43.194 0.586846 43.1816 0.587099C43.1692 0.586846 43.1578 0.583374 43.1453 0.583374H40.2175C39.177 0.583374 38.3335 1.44363 38.3335 2.50482V3.82512C38.3335 4.15711 38.5974 4.42625 38.9229 4.42625L38.9229 4.42626Z" fill="#002C42"/>
</g>
<defs>
<clipPath id="clip0_175_141">
<rect width="176.522" height="20" fill="white"/>
</clipPath>
</defs>
</svg>
