<svg width="167" height="36" viewBox="0 0 167 36" fill="none" xmlns="http://www.w3.org/2000/svg">
<path d="M11.4049 8.97695V10.3365C11.4049 16.3191 3.9844 16.5912 3.9844 21.7184C3.9844 24.5158 6.12118 26.031 8.95685 26.031C12.1429 26.031 13.8911 24.0881 14.1241 20.8256H17.1154C16.9597 25.4868 13.9684 28.7502 8.95685 28.7502C4.37299 28.7502 0.915771 26.2249 0.915771 21.9513C0.915771 15.5028 8.56921 15.4255 8.56921 10.0253V8.00595H10.3947C11.0163 8.00595 11.4049 8.31624 11.4049 8.97694V8.97695ZM11.677 2.7614C11.677 3.77155 11.1719 4.50959 9.88966 4.50959C8.56921 4.50959 8.10233 3.77156 8.10233 2.7614C8.10233 1.75125 8.56922 1.01321 9.88966 1.01321C11.1719 1.01321 11.677 1.75125 11.677 2.7614Z" fill="#F3D86C"/>
<path d="M32.1865 31.8189C32.1865 32.829 32.9245 33.5279 34.3233 33.5279H39.6452V35.6255H32.4978C30.3218 35.6255 28.9231 34.4216 28.9231 32.5569C28.9231 30.7705 30.5166 29.4491 32.4195 28.7502C25 28.5555 19.6389 22.5347 19.6389 14.8813C19.6389 7.03399 25.2329 1.01321 32.7689 1.01321C40.3441 1.01321 45.939 7.11228 45.939 14.8813C45.939 21.641 41.6655 27.235 35.4108 28.4781C33.3905 29.4883 32.1865 30.6149 32.1865 31.8189V31.8189ZM32.7689 25.7981C38.635 25.7981 42.52 20.67 42.52 14.9204C42.52 8.89961 38.4804 3.96535 32.7689 3.96535C26.9811 3.96535 23.0579 8.9378 23.0579 14.8431C23.0579 20.8256 26.9811 25.7981 32.7689 25.7981Z" fill="#F3D86C"/>
<path d="M67.2628 8.54922V28.4781H64.388L64.0777 22.4564C63.1841 27.1577 60.8143 28.7503 57.6292 28.7503C53.1227 28.7503 50.6365 25.8363 50.6365 20.8638V8.54922H53.9772V20.5144C53.9772 24.0499 55.6863 26.0311 58.8723 26.0311C62.0966 26.0311 63.9613 23.7387 63.9613 20.2041V8.54922H67.2628H67.2628Z" fill="#F3D86C"/>
<path d="M90.6078 19.194H74.9524C75.1081 23.6995 77.6716 26.3805 81.5174 26.3805C84.2758 26.3805 86.2187 25.293 87.3062 22.8068H90.3357C89.0926 26.6135 85.791 28.7503 81.5174 28.7503C75.3802 28.7503 71.8838 24.3994 71.8838 18.4168C71.8838 12.7836 75.8069 8.27712 81.3627 8.27712C87.1897 8.27712 90.6078 12.4733 90.6078 18.1055V19.194H90.6078ZM74.9524 17.251H87.5783C87.4227 13.4835 85.1303 10.4922 81.3236 10.4922C77.5943 10.4922 75.1081 13.8721 74.9524 17.251ZM80.7021 5.94652H80.3135L83.3821 0.0804138H86.9176L85.0921 2.64493C83.7325 4.54779 82.5667 5.94652 80.7021 5.94652Z" fill="#F3D86C"/>
<path d="M114.34 25.7198V28.4781H110.843C106.959 28.4781 105.055 26.3032 105.055 22.3791V11.1519H101.443V8.54921H105.055V3.11084H108.357V5.98565C108.357 7.42259 107.542 8.54921 105.91 8.54921H114.301V11.1519H108.357V21.9905C108.357 24.3602 109.562 25.7198 111.853 25.7198H114.34Z" fill="#F3D86C"/>
<path d="M136.521 8.54921V28.4781H133.646L133.297 21.7575C132.17 26.9238 129.451 28.8276 125.527 28.8276C120.167 28.8276 117.136 24.1273 117.136 18.4941C117.136 12.7836 120.321 8.19977 125.527 8.19977C129.489 8.19977 132.17 10.2201 133.141 15.5028L133.491 8.54922H136.521V8.54921ZM133.218 18.4941C133.218 14.3762 130.694 10.919 126.809 10.919C123.002 10.919 120.438 14.4545 120.438 18.4941C120.438 22.5347 122.963 26.1084 126.809 26.1084C130.771 26.1084 133.218 22.5738 133.218 18.4941Z" fill="#F3D86C"/>
<path d="M142.657 0.119537H145.998V28.4781H142.657V0.119537Z" fill="#F3D86C"/>
<path d="M156.252 20.7865V19.4269C156.252 13.4052 163.672 13.1722 163.672 8.04415C163.672 5.24763 161.535 3.7324 158.699 3.7324C155.514 3.7324 153.805 5.63622 153.571 8.89962H150.542C150.696 4.27662 153.688 1.01321 158.699 1.01321C163.283 1.01321 166.74 3.53858 166.74 7.81117C166.74 14.2215 159.127 14.2988 159.127 19.7372V21.7575H157.301C156.641 21.7575 156.252 21.4472 156.252 20.7865ZM156.019 27.0021C156.019 25.9919 156.485 25.2539 157.767 25.2539C159.088 25.2539 159.554 25.9919 159.554 27.0021C159.554 27.9731 159.088 28.7502 157.767 28.7502C156.485 28.7502 156.019 27.9731 156.019 27.0021Z" fill="#F3D86C"/>
</svg>
