<svg width="94" height="30" viewBox="0 0 94 30" fill="none" xmlns="http://www.w3.org/2000/svg">
<path d="M0.552265 21.4468H3.82549C4.72211 25.0206 7.33341 26.8852 11.5435 26.8852C15.5572 26.8852 18.3639 24.8267 18.3639 21.719C18.3639 18.9988 16.883 17.4846 13.8032 16.863L7.33341 15.5416C3.24115 14.7262 1.09732 12.8224 1.09732 8.93745C1.09732 4.19893 5.81414 1.79004 11.1143 1.79004C16.6875 1.79004 20.3123 4.3536 20.9752 9.17136H17.701C17.0391 5.90796 14.583 4.39273 11.0367 4.39273C7.25581 4.39273 4.45005 5.90795 4.45005 8.74363C4.45005 11.1134 5.57945 12.2791 8.34689 12.8615L15.129 14.2211C19.5335 15.0757 21.7157 17.2516 21.7157 21.3303C21.7157 26.4193 17.2336 29.5271 11.5042 29.5271C5.50185 29.5271 1.44886 26.6914 0.552246 21.4468L0.552265 21.4468Z" fill="#F3D86C"/>
<path d="M44.7874 9.32601V29.2549H41.9031L41.5525 22.5343C40.4221 27.7006 37.6939 29.6044 33.7569 29.6044C28.3791 29.6044 25.3386 24.904 25.3386 19.2709C25.3386 13.5604 28.5343 8.97656 33.7569 8.97656C37.7323 8.97656 40.4221 10.9969 41.3963 16.2796L41.7469 9.32602H44.7874V9.32601ZM41.4739 19.2709C41.4739 15.153 38.9412 11.6957 35.0434 11.6957C31.2241 11.6957 28.6511 15.2313 28.6511 19.2709C28.6511 23.3115 31.1848 26.8852 35.0434 26.8852C39.0188 26.8852 41.4739 23.3506 41.4739 19.2709Z" fill="#F3D86C"/>
<path d="M50.9438 0.896362H54.2956V29.2549H50.9438V0.896362Z" fill="#F3D86C"/>
<path d="M76.8998 9.32605V29.255H74.0155L73.7042 23.2332C72.8076 27.9345 70.43 29.5271 67.2343 29.5271C62.7129 29.5271 60.2185 26.6131 60.2185 21.6407V9.32605H63.5703V21.2912C63.5703 24.8267 65.285 26.8079 68.4816 26.8079C71.7165 26.8079 73.5873 24.5155 73.5873 20.9809V9.32605H76.8998H76.8998Z" fill="#F3D86C"/>
<path d="M93.5793 26.4966V29.2549H90.0714C86.1745 29.2549 84.2644 27.08 84.2644 23.1559V11.9287H80.6396V9.32601H84.2644V3.88763H87.5769V6.76245C87.5769 8.19938 86.7589 9.32601 85.1218 9.32601H93.541V11.9287H87.5769V22.7673C87.5769 25.137 88.7858 26.4966 91.0849 26.4966H93.5793Z" fill="#F3D86C"/>
</svg>
